<?xml version="1.0" encoding="UTF-8"?>
<svg version="1.1" xmlns="http://www.w3.org/2000/svg" width="512" height="512">
<path d="M0 0 C168.96 0 337.92 0 512 0 C512 168.96 512 337.92 512 512 C343.04 512 174.08 512 0 512 C0 343.04 0 174.08 0 0 Z " fill="#EC407A" transform="translate(0,0)"/>
<path d="M0 0 C13.02047447 10.94128876 18.71076069 23.55380343 22 40 C22 43.63 22 47.26 22 51 C13.42 51 4.84 51 -4 51 C-4.37125 48.256875 -4.7425 45.51375 -5.125 42.6875 C-6.85093065 31.62522018 -10.79044871 21.92978024 -20 15 C-32.44039265 7.58323173 -46.41872695 5.07522504 -60.7734375 7.4609375 C-72.48787179 10.60203187 -81.3620811 17.52253892 -87.72265625 27.77734375 C-89.23363165 30.48373457 -90.64140593 33.21445492 -92 36 C-92.556875 37.11375 -93.11375 38.2275 -93.6875 39.375 C-97.21048635 49.10515279 -98.44989532 58.54401607 -98.36328125 68.84375 C-98.36377975 70.0153064 -98.36427826 71.18686279 -98.36479187 72.3939209 C-98.3624695 74.85101025 -98.35285102 77.30810282 -98.33618164 79.76513672 C-98.31255846 83.49078014 -98.31563976 87.21570664 -98.32226562 90.94140625 C-98.31668804 93.34635836 -98.30957765 95.75130751 -98.30078125 98.15625 C-98.30169266 99.25142944 -98.30260406 100.34660889 -98.30354309 101.47497559 C-98.13130746 120.59576964 -94.01153787 139.4225391 -80.6875 153.8125 C-69.72865325 164.01133724 -58.07219796 165.61265244 -43.6796875 165.31640625 C-34.36103202 164.8682858 -26.48958748 161.40720218 -19 156 C-18.113125 155.401875 -17.22625 154.80375 -16.3125 154.1875 C-6.83929441 145.22635958 -5.4274223 133.29779211 -4 121 C4.58 121 13.16 121 22 121 C22 138.26531569 17.41412052 153.14999678 5.26953125 165.7578125 C4.52058594 166.49773437 3.77164063 167.23765625 3 168 C2.38511719 168.63679687 1.77023437 169.27359375 1.13671875 169.9296875 C-13.09656039 183.64483871 -33.92212436 187.7609552 -52.94580078 187.52148438 C-72.95663731 186.84533877 -90.46655292 178.98426586 -104.3984375 164.5078125 C-119.3818011 147.27438748 -125.31665514 127.00754077 -125.30078125 104.48828125 C-125.30468323 103.10743586 -125.30902088 101.72659165 -125.31376648 100.3457489 C-125.3211773 97.46556697 -125.32097631 94.5855077 -125.31567383 91.70532227 C-125.31104819 88.78556899 -125.31794323 85.8662327 -125.33618164 82.9465332 C-125.57177776 44.86285031 -125.57177776 44.86285031 -118.75 30.6875 C-118.44336426 30.02709717 -118.13672852 29.36669434 -117.82080078 28.6862793 C-108.7085842 9.51236531 -95.12584132 -3.62440418 -75.3125 -11.375 C-50.28269938 -19.56130237 -21.51864975 -15.24717161 0 0 Z " fill="#FEFCFD" transform="translate(309,171)"/>
</svg>
