<?xml version="1.0" encoding="UTF-8"?>
<svg version="1.1" xmlns="http://www.w3.org/2000/svg" width="512" height="512">
<path d="M0 0 C168.96 0 337.92 0 512 0 C512 168.96 512 337.92 512 512 C343.04 512 174.08 512 0 512 C0 343.04 0 174.08 0 0 Z " fill="#00897B" transform="translate(0,0)"/>
<path d="M0 0 C11.55 0 23.1 0 35 0 C35.92296875 2.36800781 36.8459375 4.73601562 37.796875 7.17578125 C45.46919936 26.85436468 53.16078761 46.52529814 60.875 66.1875 C67.5272584 83.14332285 74.17494019 100.10091713 80.8125 117.0625 C81.17913757 117.99919525 81.54577515 118.9358905 81.92352295 119.90097046 C82.27924377 120.80980988 82.6349646 121.71864929 83.00146484 122.6550293 C83.52302155 123.98752464 83.52302155 123.98752464 84.05511475 125.34693909 C84.7302081 127.07308157 85.40458638 128.79950393 86.07818604 130.52622986 C87.72755035 134.75419774 89.38650472 138.9779158 91.06396484 143.19482422 C91.39192551 144.02437119 91.71988617 144.85391815 92.05778503 145.70860291 C92.67715206 147.27497722 93.30039517 148.83982646 93.92817688 150.40284729 C95.11476362 153.41476379 96 155.73179214 96 159 C96.66 159 97.32 159 98 159 C98.16974838 158.40012268 98.33949677 157.80024536 98.51438904 157.18218994 C100.36695001 150.80427712 102.58300767 144.65368798 105.03515625 138.484375 C105.4256163 137.49230042 105.81607635 136.50022583 106.21836853 135.47808838 C107.49608154 132.2339341 108.77932769 128.99199833 110.0625 125.75 C110.96593951 123.45850862 111.86892738 121.16683913 112.77148438 118.875 C114.61976419 114.18235259 116.46972564 109.49037353 118.32080078 104.79882812 C121.87016259 95.79790684 125.39378496 86.78696625 128.9152832 77.77511597 C130.7321981 73.12676023 132.55189755 68.47949452 134.37109375 63.83203125 C137.29037295 56.37352067 140.20557605 48.91342851 143.11831665 41.45236206 C144.9782607 36.68954801 146.84036807 31.92758153 148.70288086 27.16577148 C149.60552233 24.85657181 150.50722315 22.54700421 151.40795898 20.23706055 C152.65629435 17.03600361 153.90784614 13.83622237 155.16015625 10.63671875 C155.53527847 9.67247482 155.9104007 8.7082309 156.29689026 7.71476746 C156.63985641 6.84040543 156.98282257 5.9660434 157.33618164 5.06518555 C157.63496719 4.30014206 157.93375275 3.53509857 158.24159241 2.74687195 C159 1 159 1 160 0 C171.22 0 182.44 0 194 0 C194 64.68 194 129.36 194 196 C185.42 196 176.84 196 168 196 C167.97729958 181.85554153 167.95899902 167.71109539 167.94818783 153.56662273 C167.94299588 146.99696354 167.93596619 140.42731759 167.92456055 133.85766602 C167.91359938 127.5033995 167.90769547 121.14914563 167.90512276 114.79487038 C167.90329213 112.38511774 167.89971808 109.97536569 167.89426994 107.56561852 C167.86702133 94.99988529 167.97751433 82.49563348 168.77514648 69.95263672 C169.10977681 64.07026426 169.11026449 58.20222925 169.0625 52.3125 C169.05573242 50.65250977 169.05573242 50.65250977 169.04882812 48.95898438 C169.03734302 46.30592433 169.02112001 43.6529976 169 41 C160.60594487 61.67981021 152.23142909 82.36745663 143.875 103.0625 C142.98925975 105.2556974 142.10351755 107.44889401 141.21777344 109.64208984 C137.02542272 120.02385568 132.83536245 130.40653629 128.65106201 140.79154968 C126.7469382 145.51693787 124.84169234 150.24187328 122.93634033 154.96676636 C122.03257752 157.20882809 121.12936385 159.45111127 120.22674561 161.69363403 C115.60223098 173.1828085 110.9398321 184.6424023 106 196 C100.06 196 94.12 196 88 196 C81.50408693 180.42646481 75.09631605 164.82246831 68.84954834 149.14730835 C63.02705958 134.53830094 57.14594431 119.9532436 51.25588226 105.37136459 C42.46114061 83.59791 33.69534723 61.81334786 25 40 C25.12051194 45.8818354 25.24483285 51.7635752 25.37231445 57.64526367 C25.41496544 59.63580272 25.45667004 61.62636233 25.49731445 63.61694336 C25.55675858 66.51943111 25.61989723 69.42182152 25.68359375 72.32421875 C25.70030624 73.17827805 25.71701874 74.03233734 25.73423767 74.91227722 C25.8380783 79.49030934 25.99636843 84.06100861 26.23927307 88.63374329 C26.91640448 101.42027554 27.1335003 114.15394954 27.09765625 126.95703125 C27.09578409 128.96725936 27.09436398 130.97748794 27.09336853 132.98771667 C27.08960605 138.20052418 27.07983181 143.41330244 27.06866455 148.62609863 C27.05831316 153.97663986 27.05384194 159.32718595 27.04882812 164.67773438 C27.03820184 175.11850429 27.0206584 185.55924511 27 196 C18.09 196 9.18 196 0 196 C0 131.32 0 66.64 0 0 Z " fill="#FCFDFD" transform="translate(79,157)"/>
<path d="M0 0 C1.33625389 0.9895365 2.65095632 2.00914236 3.9375 3.0625 C4.535625 3.53816406 5.13375 4.01382813 5.75 4.50390625 C17.33265249 14.81970612 21.82410447 30.26873129 23.9375 45.0625 C23.9375 53.9725 23.9375 62.8825 23.9375 72.0625 C-7.4125 72.0625 -38.7625 72.0625 -71.0625 72.0625 C-69.08037849 86.9284113 -66.68841318 102.38953053 -55.0625 113.0625 C-43.98422002 121.41006167 -31.67954642 121.02979515 -18.4375 119.4375 C-8.49695659 117.69202476 0.41396256 113.77268204 7.9375 107.0625 C12.08119185 108.44373062 13.15153736 111.25753066 15.1875 114.875 C15.56390625 115.50470703 15.9403125 116.13441406 16.328125 116.78320312 C18.95277143 121.3811591 18.95277143 121.3811591 18.88671875 124.328125 C15.24368834 130.98452624 4.96505349 135.51931325 -1.97460938 137.64941406 C-23.57595952 143.66562421 -45.47992379 144.99524402 -65.8359375 134.08203125 C-70.83705182 130.95179384 -74.95780901 127.27812858 -79.0625 123.0625 C-79.68511719 122.47210938 -80.30773437 121.88171875 -80.94921875 121.2734375 C-94.73128814 107.21262962 -98.46038099 86.73182391 -98.375 67.875 C-98.37008545 66.5950415 -98.3651709 65.31508301 -98.36010742 63.99633789 C-98.08625809 41.86229008 -92.11818013 23.47544014 -76.6875 7.1875 C-71.91772272 2.68179343 -66.81659219 -0.8038525 -61.0625 -3.9375 C-60.19109375 -4.44667969 -59.3196875 -4.95585937 -58.421875 -5.48046875 C-40.21271839 -14.36116398 -16.64739235 -10.27651009 0 0 Z " fill="#FBFDFD" transform="translate(409.0625,213.9375)"/>
<path d="M0 0 C8.82854388 4.24363622 13.96445128 11.57767104 17.5 20.5 C18.5 24.5 18.5 24.5 18.5 37.5 C-3.61 37.5 -25.72 37.5 -48.5 37.5 C-46.86910724 22.82196513 -41.62548812 12.78838747 -30.72265625 3.04296875 C-21.95452468 -3.04387127 -9.97409715 -3.47933622 0 0 Z " fill="#01897B" transform="translate(387.5,227.5)"/>
</svg>
