<?xml version="1.0" standalone="no"?>
<!DOCTYPE svg PUBLIC "-//W3C//DTD SVG 20010904//EN"
 "http://www.w3.org/TR/2001/REC-SVG-20010904/DTD/svg10.dtd">
<svg version="1.0" xmlns="http://www.w3.org/2000/svg"
 width="480.000000pt" height="480.000000pt" viewBox="0 0 480.000000 480.000000"
 preserveAspectRatio="xMidYMid meet">

<g transform="translate(0.000000,480.000000) scale(0.100000,-0.100000)"
fill="#000000" stroke="none">
<path d="M2404 4243 c-27 -7 -107 -25 -179 -39 -253 -50 -295 -71 -486 -248
-109 -101 -137 -133 -185 -215 -32 -53 -68 -110 -80 -127 -67 -88 -103 -228
-113 -439 -7 -137 -12 -171 -35 -235 -34 -94 -49 -222 -32 -265 38 -90 26
-167 -45 -304 -27 -51 -49 -97 -49 -103 0 -9 -101 -183 -165 -284 -79 -123
-88 -158 -55 -211 21 -35 58 -57 131 -79 77 -23 82 -33 74 -134 -8 -95 -2
-108 48 -108 57 1 47 -39 -13 -48 -37 -6 -40 -9 -40 -39 0 -20 12 -48 31 -75
58 -80 72 -125 76 -239 3 -93 6 -108 28 -137 14 -19 36 -39 48 -46 12 -6 93
-15 185 -19 188 -9 225 -21 327 -105 l60 -49 326 3 c179 2 350 7 380 10 l54 7
7 86 c17 231 103 376 278 468 81 43 123 78 191 161 30 36 91 107 137 159 119
135 151 202 177 379 21 143 29 157 113 182 38 11 77 29 87 40 10 11 42 33 71
50 30 17 54 34 54 39 0 5 34 53 76 106 83 104 103 151 145 339 20 89 21 93 4
206 -17 114 -61 349 -88 465 -19 86 -74 174 -166 265 -44 44 -112 123 -153
177 -60 80 -74 94 -76 75 -2 -12 -8 -22 -13 -22 -9 0 -13 21 -10 54 2 28 -11
40 -117 100 -160 91 -288 144 -403 166 -57 12 -133 27 -169 35 -77 18 -137 19
-211 4 -37 -7 -75 -8 -116 -2 -45 7 -74 6 -109 -4z m168 -152 c50 -42 68 -84
68 -156 0 -100 -76 -283 -134 -323 -21 -14 -66 -29 -117 -38 -95 -16 -129 -34
-129 -68 0 -44 42 -89 118 -127 90 -45 121 -73 179 -166 35 -57 45 -83 46
-120 2 -37 -2 -48 -15 -51 -12 -2 -20 10 -33 47 -30 90 -123 211 -163 211 -23
0 -133 82 -156 117 -37 53 -36 117 2 162 23 28 39 35 113 51 109 22 144 41
169 89 27 54 57 148 65 203 11 81 -37 141 -123 154 -60 8 -82 20 -82 44 0 25
13 28 87 16 49 -9 74 -19 105 -45z m491 33 c82 -15 117 -32 117 -55 0 -17 -24
-19 -95 -9 -133 20 -260 29 -304 23 -30 -4 -55 -16 -81 -39 -28 -25 -39 -31
-48 -22 -26 26 -1 75 53 102 41 22 241 21 358 0z m-806 -29 c3 -9 -4 -40 -15
-71 -24 -60 -21 -95 9 -156 31 -60 25 -76 -49 -148 -38 -37 -83 -92 -101 -124
-36 -62 -89 -119 -136 -144 -22 -12 -56 -17 -123 -17 -90 0 -95 1 -117 28 -40
45 -12 75 39 41 27 -17 147 -16 153 2 6 19 -42 79 -82 100 -40 20 -55 48 -38
65 5 5 29 2 57 -7 40 -14 54 -26 82 -70 19 -30 38 -54 43 -54 13 0 46 42 77
95 15 28 57 79 93 114 63 63 64 64 52 95 -37 89 -35 160 5 239 16 30 41 36 51
12z m-157 -21 c11 -13 10 -19 -8 -37 -21 -20 -23 -20 -39 -4 -16 15 -16 18 2
37 22 24 29 25 45 4z m-80 -39 c10 -12 6 -20 -22 -45 -37 -35 -71 -36 -76 -4
-2 15 7 28 30 43 39 25 51 26 68 6z m425 -105 c0 -41 -2 -45 -25 -45 -27 0
-37 26 -25 72 4 18 11 23 28 21 19 -3 22 -9 22 -48z m420 9 c14 -21 45 -166
51 -234 4 -54 2 -74 -9 -90 -24 -31 -37 -8 -42 71 -2 39 -13 105 -24 148 -15
57 -18 83 -10 97 11 21 24 24 34 8z m505 -17 c53 -21 96 -82 79 -115 -10 -17
-14 -15 -53 21 -34 31 -54 41 -94 47 -71 10 -129 -2 -164 -34 -28 -25 -30 -32
-39 -134 -10 -114 -20 -143 -74 -214 -32 -42 -61 -110 -89 -213 -29 -105 -97
-144 -183 -104 -49 24 -65 53 -61 111 3 40 6 48 23 48 16 0 21 -8 23 -35 5
-49 27 -70 73 -70 46 0 50 5 101 153 26 77 47 119 72 147 42 46 53 84 66 214
9 93 12 102 42 133 17 18 50 39 72 47 56 20 151 19 206 -2z m-1492 -29 c2 -16
-10 -30 -53 -60 -31 -21 -63 -42 -71 -48 -10 -7 -17 -6 -24 4 -16 26 18 71 82
111 40 24 62 22 66 -7z m163 -13 c10 -6 19 -15 19 -20 0 -16 -71 -90 -86 -90
-24 0 -28 30 -7 58 11 15 22 35 26 45 7 20 20 21 48 7z m1615 -125 c12 -18 14
-37 10 -72 -3 -27 -6 -57 -6 -68 -1 -52 -52 -112 -123 -143 -27 -12 -27 -13
-22 -79 4 -38 18 -126 32 -198 27 -142 26 -184 -10 -275 -27 -69 -35 -80 -59
-80 -25 0 -22 20 18 134 l28 80 -22 85 c-12 48 -26 145 -33 216 -6 72 -12 131
-13 132 0 1 -19 15 -41 33 -47 37 -105 107 -105 127 0 7 7 16 16 20 10 4 39
-19 90 -70 70 -71 77 -75 102 -66 48 18 82 59 82 99 0 20 5 41 12 48 9 9 9 18
0 37 -7 14 -12 35 -12 45 0 29 36 25 56 -5z m-1966 -79 c0 -7 -11 -23 -25 -36
-14 -13 -32 -46 -40 -73 -8 -28 -23 -65 -34 -82 l-19 -33 29 -35 c45 -55 64
-206 38 -300 -8 -29 -6 -49 7 -93 15 -47 31 -67 103 -137 128 -123 214 -158
401 -165 63 -2 119 -8 123 -12 5 -4 6 -17 2 -29 -6 -20 -13 -21 -112 -21 -122
0 -254 27 -321 66 -23 14 -84 66 -135 117 -88 87 -95 96 -112 159 -16 59 -16
77 -6 142 22 133 -4 239 -61 248 -44 6 -44 31 -1 96 22 33 45 80 52 105 14 60
74 125 96 107 8 -7 15 -18 15 -24z m1054 -36 c21 -54 20 -73 -6 -97 -24 -21
-152 -83 -172 -83 -7 0 -27 -11 -46 -25 -19 -14 -42 -25 -53 -25 -15 0 -18 6
-15 37 3 36 5 38 72 64 38 15 81 33 95 41 14 9 39 18 54 22 27 6 28 9 22 46
-12 70 23 84 49 20z m1119 -257 c36 -140 48 -203 58 -328 5 -60 14 -126 19
-145 11 -39 14 -183 3 -193 -15 -16 -31 15 -26 53 3 21 -2 76 -10 122 -9 46
-19 119 -22 163 -14 175 -63 376 -107 437 -19 25 -27 46 -23 56 5 14 14 9 45
-25 31 -35 42 -61 63 -140z m-620 1 c54 -18 77 -45 77 -89 0 -49 -31 -89 -80
-104 -24 -7 -65 -28 -93 -47 -52 -36 -71 -41 -83 -23 -9 15 15 57 37 64 9 3
34 19 54 35 21 17 47 30 59 30 12 0 27 5 34 12 35 35 -13 78 -88 78 -33 0 -40
3 -40 20 0 40 49 49 123 24z m-1431 -156 c-3 -75 32 -159 80 -188 61 -37 78
-9 42 69 -14 30 -15 35 -1 49 14 13 18 13 33 1 45 -37 70 -153 39 -179 -8 -7
-39 -13 -68 -14 -79 -2 -116 30 -156 132 -27 70 -29 83 -20 123 16 68 18 71
36 67 15 -3 18 -13 15 -60z m401 9 c9 -39 39 -73 120 -140 44 -36 47 -42 47
-85 0 -63 -16 -90 -73 -125 -60 -36 -117 -46 -137 -22 -20 24 -1 49 42 56 19
3 51 15 70 27 64 40 61 78 -10 123 -71 45 -127 146 -108 195 11 28 40 11 49
-29z m1495 18 c7 -14 12 -43 12 -63 0 -20 5 -66 11 -101 7 -45 7 -67 -1 -75
-20 -20 -31 11 -40 110 -5 54 -12 111 -16 127 -8 36 18 37 34 2z m-2205 2 c2
-6 2 -45 -2 -84 -7 -78 -22 -106 -43 -84 -15 15 -14 113 1 154 11 28 35 36 44
14z m1855 -241 c3 -23 -7 -38 -55 -83 -32 -30 -82 -68 -110 -85 -29 -16 -53
-34 -53 -39 0 -6 16 -17 35 -25 20 -8 63 -44 98 -81 34 -36 79 -74 100 -83 21
-10 95 -67 163 -126 103 -90 124 -113 122 -133 -2 -14 -8 -26 -14 -28 -5 -2
-46 30 -90 72 -43 41 -84 75 -90 75 -5 0 -23 13 -39 30 -15 16 -46 38 -69 49
-23 10 -70 49 -106 85 -36 37 -84 76 -107 87 -79 39 -80 106 -3 156 50 31 126
93 163 131 36 37 51 37 55 -2z m-443 -60 c-4 -20 -17 -51 -29 -69 -22 -32 -22
-32 -127 -37 -91 -5 -112 -10 -151 -33 -53 -31 -83 -34 -92 -11 -17 43 88 96
199 101 116 6 124 9 142 51 23 56 33 66 50 49 10 -10 12 -25 8 -51z m733 -182
c4 -29 -78 -149 -103 -149 -31 0 -30 33 3 73 16 21 37 52 46 70 19 37 49 40
54 6z m-771 -127 c31 -30 8 -48 -59 -48 -35 0 -115 -2 -179 -5 -103 -5 -118
-3 -139 14 -14 12 -21 25 -17 35 5 13 19 15 94 10 52 -3 102 -1 123 6 48 14
158 7 177 -12z m984 -131 c-27 -39 -88 -86 -112 -86 -24 0 -5 38 31 60 22 14
40 27 40 31 0 3 15 26 33 50 32 44 32 44 35 17 2 -18 -7 -43 -27 -72z m-770
30 c66 -20 145 -62 153 -81 13 -36 -23 -46 -72 -21 -15 8 -54 24 -87 35 -67
24 -90 42 -82 65 8 20 28 20 88 2z m-272 -130 c71 -48 111 -82 111 -95 0 -5
-7 -14 -15 -21 -13 -11 -27 -5 -88 36 -39 27 -79 52 -89 56 -18 8 -33 43 -23
58 11 19 37 10 104 -34z m326 -77 c22 -6 92 -13 155 -17 98 -6 115 -10 118
-24 6 -30 -43 -41 -158 -35 -119 6 -200 29 -200 56 0 34 17 38 85 20z"/>
</g>
</svg>
